<mxfile host="app.diagrams.net" modified="2020-09-14T11:23:54.300Z" agent="5.0 (Macintosh; Intel Mac OS X 10_15_6) AppleWebKit/537.36 (KHTML, like Gecko) Chrome/85.0.4183.83 Safari/537.36" etag="wWng4Ht-CvGiS3BtApWc" version="13.6.10" type="github">
  <diagram id="Smo_QJwtMCmcKdG6Kzzd" name="ページ1">
    <mxGraphModel dx="823" dy="620" grid="1" gridSize="10" guides="1" tooltips="1" connect="1" arrows="1" fold="1" page="1" pageScale="1" pageWidth="827" pageHeight="1169" math="0" shadow="0">
      <root>
        <mxCell id="0" />
        <mxCell id="1" parent="0" />
        <mxCell id="FMNwyA9VQJFO_fAn41yD-51" value="" style="edgeStyle=entityRelationEdgeStyle;fontSize=12;html=1;endArrow=ERoneToMany;entryX=-0.006;entryY=0.344;entryDx=0;entryDy=0;entryPerimeter=0;" edge="1" parent="1" source="FMNwyA9VQJFO_fAn41yD-45">
          <mxGeometry width="100" height="100" relative="1" as="geometry">
            <mxPoint x="200" y="180" as="sourcePoint" />
            <mxPoint x="309.03999999999996" y="80.96000000000004" as="targetPoint" />
          </mxGeometry>
        </mxCell>
        <mxCell id="FMNwyA9VQJFO_fAn41yD-44" value="users" style="swimlane;childLayout=stackLayout;horizontal=1;startSize=30;horizontalStack=0;rounded=1;fontSize=14;fontStyle=0;strokeWidth=2;resizeParent=0;resizeLast=1;shadow=0;dashed=0;align=center;" vertex="1" parent="1">
          <mxGeometry x="40" y="120" width="160" height="260" as="geometry" />
        </mxCell>
        <mxCell id="FMNwyA9VQJFO_fAn41yD-45" value="nickname&#xa;email&#xa;password&#xa;first_name&#xa;last_name&#xa;first_name_kana&#xa;last_name_kana&#xa;birth_date&#xa;" style="align=left;strokeColor=none;fillColor=none;spacingLeft=4;fontSize=12;verticalAlign=top;resizable=0;rotatable=0;part=1;" vertex="1" parent="FMNwyA9VQJFO_fAn41yD-44">
          <mxGeometry y="30" width="160" height="230" as="geometry" />
        </mxCell>
        <mxCell id="FMNwyA9VQJFO_fAn41yD-56" value="" style="edgeStyle=entityRelationEdgeStyle;fontSize=12;html=1;endArrow=ERoneToMany;exitX=0.5;exitY=1;exitDx=0;exitDy=0;entryX=0;entryY=0.5;entryDx=0;entryDy=0;" edge="1" parent="1" source="FMNwyA9VQJFO_fAn41yD-45" target="FMNwyA9VQJFO_fAn41yD-48">
          <mxGeometry width="100" height="100" relative="1" as="geometry">
            <mxPoint x="190" y="350" as="sourcePoint" />
            <mxPoint x="290" y="250" as="targetPoint" />
          </mxGeometry>
        </mxCell>
        <mxCell id="FMNwyA9VQJFO_fAn41yD-75" value="items" style="swimlane;childLayout=stackLayout;horizontal=1;startSize=30;horizontalStack=0;rounded=1;fontSize=14;fontStyle=0;strokeWidth=2;resizeParent=0;resizeLast=1;shadow=0;dashed=0;align=center;" vertex="1" parent="1">
          <mxGeometry x="310" y="20" width="160" height="120" as="geometry" />
        </mxCell>
        <mxCell id="FMNwyA9VQJFO_fAn41yD-76" value="item_name&#xa;image&#xa;item_text&#xa;price&#xa;user_id&#xa;" style="align=left;strokeColor=none;fillColor=none;spacingLeft=4;fontSize=12;verticalAlign=top;resizable=0;rotatable=0;part=1;" vertex="1" parent="FMNwyA9VQJFO_fAn41yD-75">
          <mxGeometry y="30" width="160" height="90" as="geometry" />
        </mxCell>
        <mxCell id="FMNwyA9VQJFO_fAn41yD-48" value="orders" style="swimlane;childLayout=stackLayout;horizontal=1;startSize=30;horizontalStack=0;rounded=1;fontSize=14;fontStyle=0;strokeWidth=2;resizeParent=0;resizeLast=1;shadow=0;dashed=0;align=center;" vertex="1" parent="1">
          <mxGeometry x="254" y="350" width="160" height="120" as="geometry" />
        </mxCell>
        <mxCell id="FMNwyA9VQJFO_fAn41yD-49" value="credit_card&#xa;shipping_addres&#xa;user_id" style="align=left;strokeColor=none;fillColor=none;spacingLeft=4;fontSize=12;verticalAlign=top;resizable=0;rotatable=0;part=1;" vertex="1" parent="FMNwyA9VQJFO_fAn41yD-48">
          <mxGeometry y="30" width="160" height="90" as="geometry" />
        </mxCell>
      </root>
    </mxGraphModel>
  </diagram>
</mxfile>
